<svg width="51" height="21" viewBox="0 0 51 21" fill="none" xmlns="http://www.w3.org/2000/svg">
<path d="M0 20.5053C0.0662304 20.2644 0.118349 20.0198 0.156092 19.7729C0.20354 19.4818 0.246134 19.1201 0.283876 18.6879C0.321619 18.2557 0.349927 17.7416 0.368798 17.1454C0.387669 16.5492 0.397105 15.852 0.397105 15.0539V5.88432C0.397105 5.08619 0.387669 4.38904 0.368798 3.79285C0.349927 3.19666 0.321619 2.68007 0.283876 2.24308C0.246134 1.80662 0.20354 1.44282 0.156092 1.15167C0.118349 0.904759 0.0662304 0.660214 0 0.41926V0.363167H3.39681V0.41926C3.33059 0.660568 3.2766 0.905012 3.23506 1.15167C3.18114 1.44282 3.13855 1.80662 3.10728 2.24308C3.076 2.67954 3.0477 3.19613 3.02236 3.79285C2.99863 4.38904 2.98677 5.08619 2.98677 5.88432V15.0539C2.98677 15.852 2.99863 16.5492 3.02236 17.1454C3.04608 17.7416 3.07439 18.2557 3.10728 18.6879C3.14071 19.1201 3.1833 19.4818 3.23506 19.7729C3.2766 20.0196 3.33059 20.264 3.39681 20.5053V20.5614H0V20.5053ZM13.5064 15.0563C13.5064 15.8544 13.5182 16.5516 13.542 17.1478C13.5657 17.744 13.594 18.2582 13.6269 18.6903C13.6603 19.1225 13.7029 19.4842 13.7547 19.7753C13.7962 20.022 13.8502 20.2664 13.9164 20.5077V20.5614H10.5042V20.5053C10.5705 20.264 10.6245 20.0196 10.666 19.7729C10.7199 19.4818 10.7625 19.1201 10.7938 18.6879C10.8251 18.2557 10.8534 17.744 10.8787 17.1526C10.9024 16.5612 10.9143 15.8616 10.9143 15.0539V5.88432C10.9143 5.08619 10.9024 4.38904 10.8787 3.79285C10.855 3.19666 10.8267 2.68248 10.7938 2.25029C10.7604 1.81811 10.7178 1.45431 10.666 1.15889C10.6249 0.909764 10.5709 0.662897 10.5042 0.41926V0.363167L11.1011 0.41926C11.2812 0.437958 11.4826 0.449711 11.7053 0.454519C11.9279 0.459327 12.1579 0.46173 12.3951 0.46173C12.8974 0.450459 13.3984 0.405752 13.8946 0.327908C14.6937 0.228721 15.4986 0.184009 16.3039 0.194087C17.1591 0.186041 18.0103 0.309582 18.8272 0.560294C19.5616 0.784171 20.2448 1.14782 20.8386 1.63087C21.4069 2.09949 21.8613 2.68889 22.1683 3.35532C22.4962 4.08402 22.6591 4.87503 22.6454 5.67276C22.6512 6.30904 22.5626 6.9427 22.3826 7.55348C22.2168 8.1107 21.9677 8.64013 21.6434 9.12408C21.3261 9.59343 20.9405 10.0136 20.499 10.3709C20.0442 10.7379 19.5421 11.0432 19.006 11.2789L23.9961 18.2232C24.2425 18.5704 24.4724 18.8709 24.6859 19.1247C24.8769 19.3543 25.0811 19.5729 25.2974 19.7793C25.4706 19.9459 25.6585 20.0968 25.8586 20.2305C26.0315 20.3443 26.2178 20.4366 26.4135 20.5053V20.5614H22.3049C22.2496 20.3116 22.1561 20.0716 22.0275 19.8499C21.8652 19.5442 21.6823 19.2497 21.48 18.9684L16.447 11.9399C16.2314 11.9586 16.0133 11.9752 15.7928 11.9896C15.5722 12.0041 15.3496 12.011 15.1247 12.0105C14.8594 12.0105 14.5917 12.0011 14.3216 11.9824C14.0476 11.9632 13.7747 11.9303 13.504 11.8839L13.5064 15.0563ZM13.5064 10.7884C13.7642 10.845 14.0254 10.8848 14.2885 10.9078C14.5537 10.9313 14.8096 10.9431 15.056 10.9431C15.7191 10.9498 16.3782 10.8414 17.0035 10.6226C17.5728 10.4236 18.0866 10.0941 18.5029 9.66097C18.9347 9.1968 19.262 8.64694 19.4629 8.0479C19.7039 7.31869 19.8193 6.5545 19.8042 5.78735C19.8114 5.14075 19.7298 4.49619 19.5616 3.87138C19.4229 3.34252 19.179 2.84642 18.8442 2.41216C18.5247 2.01155 18.1129 1.69277 17.6432 1.48262C17.1102 1.25193 16.5328 1.13899 15.9513 1.15167C15.4281 1.14274 14.905 1.1757 14.3871 1.25024C14.0874 1.2941 13.7923 1.36491 13.5056 1.46179L13.5064 10.7884ZM30.7452 20.5053C30.8114 20.2644 30.8636 20.0198 30.9013 19.7729C30.9487 19.4818 30.9913 19.1201 31.0291 18.6879C31.0668 18.2557 31.0951 17.7416 31.114 17.1454C31.1329 16.5492 31.1423 15.852 31.1423 15.0539V5.88432C31.1423 5.08619 31.1329 4.38904 31.114 3.79285C31.0951 3.19666 31.0671 2.68007 31.0299 2.24308C30.9922 1.80662 30.9496 1.44282 30.9021 1.15167C30.8644 0.904759 30.8122 0.660214 30.746 0.41926V0.363167H34.1428V0.41926C34.0766 0.660568 34.0226 0.905012 33.9811 1.15167C33.9272 1.44282 33.8846 1.80662 33.8533 2.24308C33.822 2.67954 33.7937 3.19613 33.7684 3.79285C33.7446 4.38904 33.7328 5.08619 33.7328 5.88432V15.0539C33.7328 15.852 33.7446 16.5492 33.7684 17.1454C33.7921 17.7416 33.8204 18.2557 33.8533 18.6879C33.8867 19.1201 33.9293 19.4818 33.9811 19.7729C34.0226 20.0196 34.0766 20.264 34.1428 20.5053V20.5614H30.746L30.7452 20.5053ZM49.7504 3.57329H49.4374C49.3421 3.31754 49.2207 3.07212 49.0751 2.84087C48.8968 2.55407 48.6763 2.29531 48.4208 2.0732C48.1297 1.82089 47.7981 1.61857 47.4397 1.47461C47.0077 1.30582 46.5461 1.22409 46.0818 1.23421C45.6599 1.22692 45.2403 1.29869 44.8452 1.44576C44.5039 1.57425 44.1956 1.77623 43.9426 2.03714C43.6977 2.29581 43.5111 2.6031 43.3951 2.93863C43.2678 3.31037 43.2052 3.70083 43.2099 4.09335C43.2129 4.77994 43.4126 5.45157 43.7857 6.03016C44.2017 6.68592 44.6852 7.29714 45.2286 7.85398C45.8066 8.45498 46.432 9.05597 47.1049 9.65697C47.7656 10.2458 48.392 10.8713 48.9812 11.5305C49.5401 12.1513 50.0243 12.8343 50.4241 13.5658C50.8064 14.2689 51.0045 15.0558 50.9999 15.8544C50.996 16.4807 50.8867 17.102 50.6764 17.6927C50.4644 18.3053 50.1281 18.8685 49.6881 19.3474C49.2084 19.8614 48.6236 20.2681 47.9727 20.5406C47.1796 20.8632 46.3275 21.019 45.4704 20.9982C44.9526 21.0002 44.4359 20.9505 43.9281 20.8499C43.47 20.7586 43.0189 20.6354 42.5783 20.4813C42.1981 20.3494 41.8276 20.1917 41.4694 20.0093C41.193 19.8697 40.9249 19.7145 40.6663 19.5445L40.9898 16.4314H41.3449C41.4501 16.8748 41.6227 17.2999 41.8568 17.6919C42.0907 18.0871 42.3857 18.4435 42.7311 18.748C43.0825 19.0566 43.4839 19.3042 43.9184 19.4804C44.3838 19.6693 44.8825 19.7644 45.3855 19.7601C45.8288 19.767 46.2696 19.6931 46.686 19.5421C47.0527 19.4072 47.3887 19.2012 47.6743 18.9363C47.9495 18.6775 48.1652 18.3629 48.3067 18.014C48.4564 17.6415 48.5309 17.2434 48.5259 16.8425C48.5327 16.2792 48.4226 15.7207 48.2024 15.2014C47.9792 14.6901 47.6902 14.2096 47.3427 13.7718C46.9734 13.3059 46.5695 12.8679 46.1344 12.4616C45.6842 12.039 45.2221 11.6141 44.7482 11.1867C44.2742 10.7593 43.8122 10.3202 43.3619 9.86932C42.9168 9.42496 42.5125 8.94226 42.1537 8.42693C41.7977 7.91547 41.508 7.36168 41.2915 6.7786C41.0688 6.15706 40.9593 5.50128 40.968 4.84179C40.9579 4.15014 41.1061 3.46521 41.4015 2.83847C41.6787 2.25807 42.0702 1.7385 42.5532 1.31034C43.0301 0.88877 43.5822 0.55912 44.1812 0.338326C44.7809 0.11417 45.4166 -0.000403347 46.0576 0.000164938C46.4961 -0.00283121 46.9339 0.034998 47.3653 0.113153C47.7285 0.179536 48.087 0.268934 48.4386 0.380796C48.7561 0.4839 49.0333 0.587271 49.27 0.690909L49.8531 0.944129L49.7504 3.57329Z" fill="white"/>
</svg>
