<svg width="117" height="18" viewBox="0 0 117 18" fill="none" xmlns="http://www.w3.org/2000/svg">
<path d="M0 17.0894V0.289423H3.648L9 10.9454L14.28 0.289423H17.928V17.0894H14.856V5.49742L10.176 14.6894H7.752L3.068 5.49742V17.0894H0ZM23.592 17.0894V0.289423H26.668V17.0894H23.592ZM32.328 17.0894V0.289423H35.976L41.328 10.9454L46.608 0.289423H50.256V17.0894H47.184V5.49742L42.504 14.6894H40.08L35.4 5.49742V17.0894H32.328ZM63.792 17.3774C62.2531 17.4134 60.7329 17.0334 59.392 16.2774C58.1441 15.5498 57.1223 14.4906 56.44 13.2174C55.7043 11.8235 55.3354 10.2653 55.368 8.68942C55.3349 7.11528 55.7024 5.55855 56.436 4.16542C57.1183 2.8922 58.1401 1.833 59.388 1.10542C60.7289 0.349438 62.2491 -0.0305931 63.788 0.00542216C63.788 0.00542216 71.178 0.00542216 71.36 0.00542216C72.8348 -0.00556787 74.2863 0.373946 75.567 1.10542C76.8185 1.82845 77.8414 2.8888 78.519 4.16542C79.2463 5.5606 79.6108 7.11637 79.579 8.68942C79.6121 10.2621 79.2489 11.8179 78.523 13.2134C77.8446 14.4904 76.8206 15.5508 75.568 16.2734C74.2827 16.9873 72.8382 17.3656 71.368 17.3734C71.52 17.3734 63.968 17.3774 63.792 17.3774ZM63.792 14.6174C63.792 14.6174 71.182 14.6174 71.392 14.6174C72.0727 14.6283 72.7477 14.4928 73.3714 14.22C73.9951 13.9473 74.5529 13.5436 75.007 13.0364C76.0154 11.82 76.5256 10.2668 76.435 8.68942C76.5248 7.11303 76.0146 5.56106 75.007 4.34542C74.5369 3.84354 73.9684 3.44401 73.3369 3.17181C72.7055 2.8996 72.0246 2.76058 71.337 2.76342C71.496 2.76342 63.953 2.76342 63.793 2.76342C63.0763 2.73261 62.3615 2.85835 61.6983 3.13191C61.0351 3.40547 60.4395 3.82026 59.953 4.34742C58.9382 5.55899 58.423 7.11154 58.512 8.68942C58.4222 10.2678 58.9371 11.8212 59.952 13.0334C60.4385 13.5606 61.0341 13.9754 61.6973 14.2489C62.3605 14.5225 63.0753 14.6482 63.792 14.6174ZM90.427 17.3774C89.3062 17.3996 88.1935 17.1828 87.163 16.7414C86.2633 16.3538 85.4901 15.7219 84.931 14.9174C84.3672 14.0595 84.0746 13.0519 84.091 12.0254H87.331C87.3465 12.7711 87.6522 13.4814 88.183 14.0054C88.4797 14.2819 88.8295 14.4954 89.211 14.6329C89.5926 14.7704 89.9981 14.8291 90.403 14.8054C91.0998 14.8429 91.7878 14.6349 92.347 14.2174C92.5809 14.0301 92.7678 13.7909 92.893 13.5187C93.0181 13.2465 93.078 12.9489 93.068 12.6494C93.0849 12.3513 93.0368 12.0531 92.927 11.7754C92.8172 11.4978 92.6483 11.2473 92.432 11.0414C91.9375 10.6177 91.3617 10.2992 90.74 10.1054L88.484 9.33742C87.3743 9.00079 86.3589 8.40899 85.519 7.60942C85.1714 7.23228 84.9023 6.78983 84.7272 6.30779C84.5521 5.82574 84.4745 5.3137 84.499 4.80142C84.4586 3.89597 84.7065 3.00105 85.207 2.24542C85.7096 1.52086 86.4014 0.948077 87.207 0.589422C88.1284 0.182271 89.1278 -0.0184174 90.135 0.00142245C91.1551 -0.0192501 92.1672 0.185627 93.099 0.601421C93.9124 0.965788 94.6099 1.54701 95.115 2.28142C95.6165 3.04465 95.8873 3.93624 95.895 4.84942H92.611C92.5947 4.25672 92.3496 3.69333 91.927 3.27742C91.6851 3.04232 91.397 2.86011 91.0809 2.74235C90.7649 2.6246 90.4277 2.57388 90.091 2.59342C89.4866 2.55831 88.8888 2.73357 88.399 3.08942C88.1715 3.26484 87.9902 3.49318 87.871 3.7546C87.7518 4.01602 87.6982 4.3026 87.715 4.58942C87.7029 4.83626 87.7437 5.08284 87.8348 5.31258C87.9259 5.54233 88.065 5.74992 88.243 5.92142C88.6637 6.28966 89.1531 6.57106 89.683 6.74942C90.291 6.97342 90.987 7.21342 91.771 7.46942C92.5591 7.73793 93.322 8.07523 94.051 8.47742C94.7189 8.8429 95.2874 9.36607 95.707 10.0014C96.1502 10.7343 96.3672 11.5817 96.331 12.4374C96.3358 13.2996 96.1033 14.1465 95.659 14.8854C95.1792 15.6628 94.4888 16.2884 93.668 16.6894C92.6585 17.1755 91.5469 17.4115 90.427 17.3774ZM100.339 17.0894L106.483 0.289423H109.939L116.083 17.0894H112.819L111.475 13.2014H104.923L103.555 17.0894H100.339ZM105.763 10.8014H110.635L108.187 3.81742L105.763 10.8014Z" fill="white"/>
</svg>
