<svg width="105" height="27" viewBox="0 0 105 27" fill="none" xmlns="http://www.w3.org/2000/svg">
<path d="M3.72213 21.753L10.769 26.4512C11.0438 26.6339 11.3664 26.7313 11.6963 26.7313C12.0262 26.7313 12.3488 26.6339 12.6236 26.4512L19.6705 21.753C20.8167 20.9917 21.7565 19.9583 22.406 18.7452C23.0555 17.5321 23.3945 16.177 23.3926 14.801V1.67495C23.3926 1.23073 23.2161 0.804697 22.902 0.490582C22.5879 0.176468 22.1619 0 21.7176 0H1.67496C1.23073 0 0.804705 0.176468 0.490591 0.490582C0.176476 0.804697 7.87348e-06 1.23073 7.87348e-06 1.67495V14.801C-0.00188362 16.177 0.337056 17.5321 0.986555 18.7452C1.63605 19.9583 2.57589 20.9917 3.72213 21.753ZM3.34154 3.34153H20.0492V14.801C20.0515 15.6277 19.8487 16.442 19.4589 17.171C19.0692 17.9 18.5046 18.5209 17.8159 18.9781L11.694 23.0567L5.57388 18.9744C4.88568 18.5176 4.32147 17.8972 3.93174 17.1689C3.54201 16.4406 3.33891 15.627 3.34061 14.801L3.34154 3.34153Z" fill="white"/>
<path d="M10.0224 16.707C10.4652 16.7064 10.8898 16.5304 11.2032 16.2176L17.8826 9.53449L15.5246 7.17188L10.0233 12.6732L7.86262 10.5134L5.5 12.876L8.84153 16.2176C9.15497 16.5304 9.57953 16.7064 10.0224 16.707Z" fill="white"/>
<path d="M36.8123 20.5697C35.7411 20.5593 34.6747 20.4244 33.6346 20.1677C32.7224 19.9729 31.8345 19.6776 30.9872 19.2874L31.3594 15.8705C33.1588 16.8339 35.1505 17.3835 37.1892 17.4794C37.9205 17.5193 38.647 17.3388 39.2745 16.9611C39.5207 16.7943 39.7196 16.5666 39.8516 16.3001C39.9837 16.0337 40.0446 15.7375 40.0283 15.4406C40.0452 14.9896 39.8977 14.5478 39.6132 14.1974C39.2842 13.8335 38.8761 13.5498 38.4203 13.3683C37.9011 13.1444 37.072 12.8314 35.933 12.4294C35.0097 12.127 34.1178 11.7359 33.2698 11.2616C32.5918 10.8775 32.017 10.3347 31.5949 9.67969C31.1679 8.96278 30.9569 8.1379 30.9872 7.30404C30.9645 6.61014 31.1024 5.92036 31.39 5.28847C31.6776 4.65657 32.1072 4.09962 32.6454 3.66102C34.0159 2.65721 35.696 2.16799 37.3911 2.27919C38.3677 2.27971 39.3412 2.38926 40.2935 2.6058C41.1962 2.80523 42.0822 3.07402 42.9436 3.40978L42.6189 6.70106C41.6958 6.28985 40.7426 5.94984 39.7677 5.68399C38.9273 5.4606 38.0616 5.34645 37.192 5.34435C36.4333 5.29829 35.6766 5.46353 35.0062 5.82171C34.7678 5.96281 34.5719 6.16569 34.4392 6.40891C34.3065 6.65214 34.242 6.92669 34.2525 7.20355C34.2359 7.6257 34.3795 8.03851 34.6544 8.35926C34.9596 8.6868 35.3324 8.94399 35.7469 9.11299C36.2072 9.31399 36.8896 9.55686 37.7941 9.8416C39.4063 10.2658 40.9153 11.0139 42.229 12.0404C42.6973 12.4705 43.0652 12.9984 43.3065 13.5867C43.5477 14.175 43.6564 14.8093 43.6248 15.4443C43.6384 16.7836 43.1239 18.0744 42.1927 19.0371C41.2361 20.0588 39.4426 20.5697 36.8123 20.5697ZM48.5203 20.4692C48.0406 20.4827 47.5632 20.3996 47.1163 20.2247C46.6695 20.0498 46.2625 19.7867 45.9194 19.4512C45.5653 19.0895 45.2898 18.6583 45.1105 18.1849C44.9311 17.7115 44.8517 17.2061 44.8772 16.7005C44.8604 16.2016 44.9584 15.7055 45.1638 15.2505C45.3692 14.7955 45.6765 14.3938 46.0618 14.0764C46.8739 13.4022 47.8284 12.9212 48.8534 12.6695C49.8635 12.4022 50.8997 12.2462 51.9437 12.2042C51.9694 11.6234 51.7667 11.0555 51.3789 10.6223C50.8919 10.259 50.2875 10.0889 49.6825 10.145C49.1346 10.1443 48.5893 10.2205 48.0624 10.3711C47.4353 10.5611 46.8257 10.8049 46.2405 11.0997L45.9613 8.56212C47.3795 7.85013 48.9416 7.47139 50.5283 7.45479C51.1444 7.4133 51.7625 7.49931 52.3438 7.70745C52.9252 7.91559 53.4573 8.24138 53.9071 8.66448C54.7792 9.74641 55.1981 11.1242 55.0758 12.5085V15.9003C55.0629 16.3586 55.0925 16.8171 55.1642 17.27C55.1736 17.3745 55.2053 17.4757 55.2574 17.5668C55.3094 17.6578 55.3805 17.7366 55.4657 17.7976C55.6928 17.8883 55.9373 17.9271 56.1813 17.9111H56.5833L56.3088 20.4692H55.181C54.5795 20.4892 53.9828 20.3553 53.4474 20.0802C52.9911 19.834 52.6152 19.462 52.3643 19.0082C51.911 19.496 51.3443 19.8642 50.7145 20.0802C50.0124 20.3406 49.2691 20.4723 48.5203 20.4692ZM49.823 18.0824C50.1948 18.0711 50.5613 17.9903 50.9034 17.8441C51.2945 17.6917 51.6528 17.4656 51.9586 17.1779V14.3137C51.0352 14.3431 50.1281 14.5649 49.2954 14.9651C48.9646 15.0877 48.678 15.3062 48.4721 15.5926C48.2662 15.8791 48.1505 16.2205 48.1397 16.573C48.1217 16.7811 48.1483 16.9907 48.2176 17.1877C48.2869 17.3847 48.3974 17.5647 48.5417 17.7157C48.911 17.9901 49.3685 18.119 49.8267 18.0777L49.823 18.0824ZM63.2934 26.5455C61.8162 26.6168 60.3477 26.2821 59.0473 25.5778C58.5689 25.3267 58.1684 24.9492 57.8895 24.4864C57.6106 24.0235 57.4639 23.4931 57.4654 22.9528C57.4936 22.3184 57.6992 21.7046 58.0587 21.1812C58.4183 20.6577 58.9175 20.2457 59.4996 19.9918C59.1705 19.8232 58.8936 19.568 58.6988 19.2536C58.504 18.9393 58.3986 18.5778 58.3941 18.208C58.3899 17.8365 58.5094 17.4741 58.7338 17.1779C58.9745 16.8643 59.2882 16.6142 59.6475 16.4493C59.0214 16.0092 58.5231 15.411 58.2034 14.7157C57.8725 13.9896 57.706 13.1994 57.7158 12.4015C57.7054 11.5228 57.9126 10.6552 58.3187 9.87603C58.7185 9.11622 59.3292 8.48806 60.0774 8.06708C60.9153 7.60668 61.8603 7.37707 62.816 7.40175C63.8298 7.37562 64.828 7.6558 65.6802 8.20573C66.0432 8.02757 66.4275 7.89654 66.8238 7.81584C67.331 7.70393 67.8491 7.64931 68.3685 7.65299H69.1724L68.9714 9.61269H67.8362C67.5515 9.61269 67.317 9.62106 67.1327 9.63781C67.651 10.4645 67.9133 11.4261 67.8864 12.4015C67.8969 13.2783 67.6945 14.1446 67.2965 14.926C66.9056 15.6874 66.2999 16.3173 65.5545 16.7378C64.7167 17.1982 63.7717 17.4278 62.816 17.4031C62.3669 17.3949 61.9202 17.3359 61.4844 17.2272C61.4016 17.2565 61.3301 17.311 61.28 17.3832C61.2299 17.4553 61.2037 17.5414 61.2052 17.6292C61.2111 17.7441 61.2513 17.8545 61.3206 17.9463C61.39 18.038 61.4853 18.1068 61.5942 18.1438C62.0166 18.3107 62.4605 18.4166 62.9128 18.4583L65.0735 18.7375C67.9544 19.1227 69.3948 20.337 69.3948 22.3805C69.4071 22.9835 69.2645 23.5796 68.9807 24.1118C68.6969 24.6441 68.2814 25.0946 67.7738 25.4205C66.4297 26.2429 64.8666 26.6354 63.2934 26.5455ZM62.816 15.0926C63.1315 15.1105 63.447 15.0552 63.7376 14.9309C64.0282 14.8066 64.286 14.6167 64.4909 14.3761C64.9124 13.8072 65.12 13.1081 65.0772 12.4015C65.1182 11.6949 64.909 10.9965 64.4863 10.4288C64.2814 10.1881 64.0235 9.99823 63.7329 9.87392C63.4423 9.74962 63.1269 9.69428 62.8113 9.71225C62.4926 9.69301 62.1738 9.74766 61.8797 9.87195C61.5856 9.99623 61.3242 10.1868 61.1159 10.4288C60.6932 10.9965 60.484 11.6949 60.525 12.4015C60.4842 13.1078 60.6934 13.8058 61.1159 14.3733C61.3244 14.6164 61.5865 14.8079 61.8814 14.9327C62.1764 15.0575 62.4963 15.1122 62.816 15.0926ZM63.419 24.1876C65.5629 24.1876 66.6349 23.6603 66.6349 22.6057C66.647 22.3979 66.6018 22.1908 66.5043 22.0068C66.4069 21.8229 66.2609 21.6692 66.0821 21.5625C65.5087 21.2726 64.8872 21.0898 64.2481 21.0228L61.4844 20.6199C61.0882 20.7199 60.7348 20.945 60.4768 21.2619C60.2188 21.5787 60.0699 21.9704 60.0523 22.3786C60.0477 22.6665 60.1289 22.9492 60.2855 23.1908C60.4421 23.4324 60.667 23.622 60.9317 23.7353C61.7148 24.0757 62.5661 24.2305 63.419 24.1876ZM70.9069 2.63093H74.0224V5.74634H70.9069V2.63093ZM70.9069 7.65578H74.0224V20.2179H70.9069V7.65578ZM81.0311 20.4692C80.567 20.5018 80.1014 20.432 79.6672 20.2648C79.2331 20.0976 78.841 19.837 78.5187 19.5014C77.9506 18.8615 77.6455 18.0305 77.6644 17.1751V10.2157H75.8806L76.1598 7.65299H77.6672V4.88932L80.7826 4.56271V7.65578H83.5463V10.2185H80.7799V15.8947C80.7609 16.3628 80.799 16.8316 80.8934 17.2905C80.9217 17.4088 80.9807 17.5176 81.0646 17.6059C81.1484 17.6941 81.254 17.7586 81.3707 17.793C81.8035 17.8875 82.2467 17.9256 82.6893 17.9065H83.5435L83.2672 20.4692H81.0311ZM89.6739 20.4692C89.2098 20.5019 88.7443 20.4323 88.3101 20.2652C87.8759 20.0982 87.4838 19.8377 87.1614 19.5024C86.5934 18.8625 86.2882 18.0315 86.3072 17.176V10.2166H84.5234L84.8025 7.65392H86.31V4.89025L89.4254 4.56364V7.65578H92.1891V10.2185H89.4245V15.8947C89.4052 16.3628 89.443 16.8315 89.5371 17.2905C89.5654 17.4088 89.6244 17.5176 89.7082 17.6059C89.7921 17.6941 89.8977 17.7586 90.0144 17.793C90.4475 17.8876 90.891 17.9257 91.3339 17.9065H92.1881L91.9099 20.4692H89.6739ZM96.932 20.4692C96.453 20.4822 95.9762 20.3988 95.5301 20.2239C95.0839 20.049 94.6775 19.7863 94.3349 19.4512C93.9807 19.0895 93.7053 18.6583 93.5259 18.1849C93.3465 17.7115 93.2671 17.2061 93.2927 16.7005C93.2753 16.202 93.3726 15.7061 93.5772 15.2511C93.7817 14.7962 94.0881 14.3943 94.4726 14.0764C95.2847 13.4022 96.2392 12.9212 97.2642 12.6695C98.2742 12.4022 99.3105 12.2462 100.354 12.2042C100.38 11.6234 100.177 11.0555 99.7896 10.6223C99.3026 10.259 98.6983 10.0889 98.0933 10.145C97.5451 10.1443 96.9994 10.2204 96.4723 10.3711C95.8455 10.5612 95.2362 10.8049 94.6513 11.0997L94.3721 8.56212C95.7921 7.84995 97.3562 7.47182 98.9447 7.45665C99.561 7.41503 100.179 7.50098 100.761 7.70912C101.342 7.91726 101.875 8.24313 102.324 8.66634C103.197 9.74827 103.615 11.1261 103.493 12.5104V15.9021C103.48 16.3604 103.509 16.819 103.581 17.2719C103.59 17.3763 103.622 17.4776 103.674 17.5686C103.726 17.6597 103.797 17.7384 103.882 17.7995C104.109 17.8903 104.354 17.9291 104.599 17.913H105.001L104.723 20.4692H103.593C102.991 20.4892 102.394 20.3553 101.859 20.0802C101.403 19.8339 101.028 19.4618 100.777 19.0082C100.325 19.4951 99.7611 19.8632 99.1336 20.0802C98.4301 20.3411 97.6852 20.4729 96.9348 20.4692H96.932ZM98.2347 18.0824C98.6066 18.0711 98.973 17.9903 99.3151 17.8441C99.7063 17.6917 100.064 17.4656 100.37 17.1779V14.3137C99.4469 14.3431 98.5398 14.5649 97.7071 14.9651C97.3764 15.0877 97.0897 15.3062 96.8838 15.5926C96.6779 15.8791 96.5622 16.2205 96.5514 16.573C96.5343 16.7821 96.562 16.9923 96.6328 17.1897C96.7036 17.3871 96.8157 17.5671 96.9618 17.7176C97.3299 17.99 97.7851 18.1181 98.2412 18.0777L98.2347 18.0824Z" fill="white"/>
</svg>
