<svg width="107" height="21" viewBox="0 0 107 21" fill="none" xmlns="http://www.w3.org/2000/svg">
<path d="M31.3066 20.4199C30.6503 20.4495 29.9958 20.3312 29.3914 20.0738C28.787 19.8165 28.2481 19.4266 27.8146 18.9331C26.8768 17.7063 26.4175 16.1803 26.5225 14.6397C26.532 13.1696 26.7678 11.7098 27.2219 10.3115C27.6378 8.92762 28.3815 7.6645 29.3897 6.62928C29.8661 6.14264 30.4378 5.75945 31.0689 5.50363C31.7001 5.2478 32.3773 5.12484 33.0581 5.14242C33.9115 5.11466 34.7592 5.29076 35.531 5.65612C36.2083 6.00817 36.7827 6.52999 37.1979 7.17054H37.3643L38.2253 5.47508H41.449L40.8057 9.03232L40.361 11.4501C39.7869 14.6358 39.4999 16.3401 39.4999 16.5631C39.4944 16.6669 39.5129 16.7707 39.5538 16.8663C39.5948 16.9619 39.6571 17.0468 39.7361 17.1145C39.8966 17.2453 40.0987 17.3144 40.3058 17.3093H41.1117L40.6394 19.9742C39.9218 20.2885 39.1436 20.4404 38.3604 20.419C37.6786 20.4606 37.0041 20.2587 36.4573 19.8492C36.2257 19.64 36.0464 19.3793 35.9337 19.0882C35.8211 18.7972 35.7782 18.4837 35.8085 18.1731H35.6422C35.1467 18.8756 34.4887 19.4478 33.7243 19.841C32.9766 20.2255 32.1473 20.424 31.3066 20.4199ZM32.7769 17.1117C33.1882 17.1212 33.5963 17.0366 33.97 16.8642C34.3436 16.6919 34.6729 16.4365 34.9327 16.1174C35.5128 15.4217 35.9306 14.6055 36.1559 13.7281C36.3942 12.8852 36.5203 12.0145 36.5308 11.1385C36.5308 9.26758 35.7527 8.33209 34.1967 8.33209C33.7731 8.31661 33.3518 8.39988 32.966 8.57532C32.5802 8.75076 32.2405 9.01356 31.9737 9.34293C31.4046 10.0464 31.0053 10.8715 30.8067 11.7542C30.5911 12.6264 30.4791 13.5208 30.4731 14.4192C30.4731 16.2179 31.2419 17.1172 32.7796 17.1172L32.7769 17.1117ZM46.3681 0H50.1753L46.6456 20.0909H42.8357L46.3681 0ZM54.0928 0H57.9L54.3712 20.0909H50.564L54.0928 0ZM61.7347 0H65.5419L64.8987 3.58389H61.0961L61.7347 0ZM60.8737 5.47416H64.6809L62.0959 20.0909H58.2887L60.8737 5.47416ZM72.242 20.4199C70.6106 20.5117 68.9855 20.1511 67.5461 19.3778C67.0364 19.0984 66.6122 18.6858 66.3186 18.1841C66.025 17.6823 65.8731 17.1103 65.8792 16.5291C65.8725 16.1587 65.9387 15.7905 66.074 15.4457H69.77C69.7139 15.5775 69.6854 15.7195 69.6864 15.8629C69.677 16.1198 69.7448 16.3736 69.8811 16.5916C70.0174 16.8097 70.2159 16.9818 70.4509 17.086C71.0441 17.3644 71.6945 17.4991 72.3495 17.4793C73.0695 17.4958 73.7862 17.378 74.4631 17.1319C74.7177 17.0646 74.943 16.9151 75.1039 16.7065C75.2648 16.4979 75.3522 16.2421 75.3526 15.9786C75.3516 15.7505 75.2806 15.5282 75.1491 15.3418C75.0176 15.1555 74.832 15.014 74.6174 14.9366C73.8566 14.6118 73.0716 14.347 72.2695 14.1444C71.4023 13.9373 70.5485 13.6774 69.713 13.3661C69.057 13.114 68.4675 12.7147 67.99 12.199C67.4945 11.6427 67.2354 10.9152 67.2677 10.1709C67.2362 9.44021 67.3935 8.71374 67.7244 8.06153C68.0554 7.40932 68.5488 6.85338 69.1571 6.44733C70.5951 5.5263 72.2817 5.07008 73.988 5.14059C75.4853 5.07916 76.9745 5.38951 78.3226 6.04391C78.8105 6.25379 79.2273 6.60012 79.5231 7.04126C79.8188 7.4824 79.9808 7.99957 79.9896 8.53058C79.9883 8.94591 79.9226 9.35853 79.7948 9.7537H76.1015L76.1291 9.47801C76.1375 9.26573 76.086 9.05538 75.9803 8.87106C75.8747 8.68675 75.7192 8.53594 75.5318 8.43593C75.0199 8.17859 74.4499 8.05888 73.8777 8.08857C73.2072 8.06131 72.5388 8.17982 71.9185 8.43593C71.7102 8.50605 71.5283 8.63799 71.397 8.81416C71.2656 8.99033 71.1911 9.20235 71.1833 9.42196C71.1925 9.63444 71.2667 9.83898 71.3959 10.0079C71.525 10.1769 71.703 10.3021 71.9056 10.3666C72.6228 10.6618 73.3674 10.8852 74.1286 11.0338C75.0189 11.2261 75.8959 11.476 76.754 11.7818C77.4344 12.0319 78.0478 12.436 78.5459 12.9627C79.0669 13.5451 79.3367 14.3097 79.2967 15.09C79.3583 15.8854 79.2051 16.6827 78.8532 17.3987C78.5013 18.1147 77.9636 18.723 77.2962 19.16C75.7657 20.0524 74.0123 20.4895 72.242 20.4199ZM85.5805 20.4199C84.6112 20.5142 83.6436 20.2249 82.8852 19.614C82.614 19.3363 82.4023 19.0062 82.2629 18.6439C82.1236 18.2816 82.0595 17.8947 82.0747 17.5068C82.1464 16.6485 82.267 15.795 82.4358 14.9503L83.545 8.58664H81.799L82.3504 5.47416H84.101L85.518 1.36188H88.658L87.9082 5.47416H90.4371L89.8857 8.58664H87.3559L86.1603 15.3657C86.0815 15.7417 86.0259 16.1223 85.994 16.5052C85.9875 16.6185 86.008 16.7318 86.0539 16.8356C86.0998 16.9395 86.1696 17.0309 86.2577 17.1025C86.482 17.2558 86.7513 17.3293 87.0223 17.3111H88.3557L87.8834 19.9761C87.515 20.1019 87.139 20.2042 86.7576 20.2821C86.3699 20.3689 85.9741 20.4151 85.5768 20.4199H85.5805ZM97.6683 20.4199C96.4962 20.4405 95.3369 20.1732 94.2921 19.6416C93.3238 19.1463 92.5067 18.3993 91.9267 17.4793C91.3385 16.5374 91.0256 15.4497 91.0234 14.3392C91.0154 13.5291 91.0806 12.7199 91.2182 11.9215C91.4532 9.99679 92.3583 8.21624 93.7747 6.8921C95.3395 5.64717 97.3088 5.02378 99.3049 5.14151C100.49 5.12023 101.663 5.38734 102.722 5.91985C103.696 6.41417 104.517 7.16339 105.098 8.08765C105.686 9.02953 105.999 10.1172 106.001 11.2277C106.009 12.0378 105.944 12.847 105.806 13.6454C105.571 15.5726 104.66 17.354 103.236 18.6739C101.655 19.9186 99.673 20.5399 97.6646 20.4199H97.6683ZM97.944 17.3074C98.481 17.3402 99.019 17.2608 99.5237 17.0743C100.028 16.8877 100.489 16.5982 100.875 16.224C101.662 15.2827 102.124 14.1135 102.195 12.8891C102.271 12.3553 102.309 11.8166 102.306 11.2773C102.32 10.8666 102.249 10.4575 102.099 10.0752C101.948 9.69283 101.721 9.34543 101.43 9.05438C100.784 8.48754 99.9407 8.19801 99.0825 8.24846C98.5455 8.2157 98.0075 8.29511 97.5028 8.48164C96.9981 8.66817 96.5378 8.95774 96.1511 9.3319C95.3649 10.2732 94.9022 11.4424 94.8315 12.6668C94.755 13.2006 94.7179 13.7393 94.7203 14.2786C94.7067 14.6893 94.7774 15.0984 94.928 15.4807C95.0786 15.8631 95.306 16.2105 95.5961 16.5015C96.2414 17.0698 97.0846 17.361 97.9431 17.312L97.944 17.3074Z" fill="white"/>
<path d="M14.9642 20.4267C13.3248 20.4878 11.6948 20.154 10.2114 19.4535C9.00332 18.8313 8.06009 17.7945 7.55469 16.5331L11.4023 14.879C11.9445 16.2868 13.1906 17.0008 15.1075 17.0008C16.3869 17.0435 17.6464 16.6755 18.7015 15.9505C19.6686 15.254 20.3228 14.205 20.5229 13.0301H24.5249C24.3053 14.5297 23.6924 15.9445 22.7485 17.1304C21.8478 18.2252 20.6861 19.0759 19.3705 19.6042C17.9686 20.1604 16.4723 20.4397 14.9642 20.4267ZM25.3822 8.11463H21.247C21.3008 7.84036 21.3281 7.56156 21.3288 7.28207C21.356 6.83683 21.2783 6.39141 21.102 5.98168C20.9256 5.57195 20.6555 5.20937 20.3133 4.92313C19.5301 4.35331 18.5753 4.06889 17.608 4.11722C16.1984 4.06558 14.8208 4.54542 13.7484 5.46163L10.0726 3.76894C10.3603 3.4578 10.6672 3.165 10.9915 2.89226C11.8781 2.16904 12.8915 1.61715 13.98 1.26481C15.1962 0.874135 16.4675 0.682062 17.7449 0.695979C19.7353 0.60351 21.7057 1.12757 23.3872 2.19662C24.0865 2.68715 24.6495 3.34736 25.0236 4.11523C25.3976 4.88311 25.5704 5.73346 25.5256 6.58642C25.5167 7.09842 25.4687 7.60899 25.3822 8.11371V8.11463Z" fill="white"/>
<path d="M0.617532 14.2042L12.9057 9.81987L2.19261 5.43558L2.81014 1.91602L16.3949 7.96728L15.6846 11.8884L0 17.9718L0.617532 14.2042Z" fill="white"/>
<path d="M0.617532 14.2027L12.9057 9.81836L15.8289 11.0176L15.6846 11.8869L0 17.9694L0.617532 14.2027Z" fill="white"/>
</svg>
