<svg width="102" height="29" viewBox="0 0 102 29" fill="none" xmlns="http://www.w3.org/2000/svg">
<path d="M35.2545 14.3102C35.2411 13.2272 35.4564 12.1536 35.8863 11.1595C36.295 10.2242 36.8998 9.38755 37.6598 8.70612C38.4579 8.00093 39.3878 7.46098 40.3959 7.11751C41.5372 6.73034 42.7362 6.54079 43.9413 6.55702C45.1437 6.54303 46.3398 6.73369 47.4783 7.12083C48.4897 7.463 49.4229 8.00303 50.2236 8.70943C50.9835 9.39087 51.5883 10.2275 51.9971 11.1628C52.4269 12.1569 52.6422 13.2305 52.6289 14.3135C52.6415 15.4034 52.4263 16.4839 51.9971 17.4857C51.5888 18.4297 50.9842 19.2759 50.2236 19.9682C49.4243 20.6828 48.4912 21.2318 47.4783 21.5833C46.3418 21.9799 45.1449 22.1754 43.9413 22.1612C42.7361 22.1754 41.5377 21.979 40.4001 21.5808C39.3903 21.2272 38.4604 20.6775 37.6639 19.9632C36.902 19.2718 36.296 18.4262 35.8863 17.4824C35.4571 16.4805 35.2419 15.4001 35.2545 14.3102ZM38.3347 14.3102C38.3234 15.0384 38.4676 15.7606 38.7576 16.4286C39.0292 17.0429 39.4302 17.5913 39.9333 18.0363C40.4536 18.4908 41.0577 18.8392 41.7117 19.0619C42.4292 19.307 43.1831 19.4284 43.9413 19.4209C44.6995 19.4281 45.4534 19.3064 46.1708 19.0611C46.8235 18.8393 47.4262 18.4911 47.9443 18.0363C48.4454 17.5895 48.8461 17.0416 49.12 16.4286C49.4132 15.7614 49.5591 15.0389 49.5478 14.3102C49.5598 13.5847 49.4138 12.8652 49.12 12.2017C48.8468 11.5976 48.4457 11.0601 47.9443 10.6264C47.4241 10.1838 46.8213 9.84871 46.1708 9.64054C45.4509 9.40679 44.6981 9.2906 43.9413 9.29646C43.1846 9.28927 42.4318 9.40405 41.7117 9.6364C41.0601 9.84533 40.4558 10.1803 39.9333 10.6222C39.43 11.0542 39.0285 11.5922 38.7576 12.1976C38.4665 12.8632 38.3223 13.5838 38.3347 14.3102ZM55.6883 10.4821H58.5646V12.1337C59.1952 11.6633 59.8686 11.2533 60.576 10.9091C61.251 10.5774 61.9573 10.3139 62.6845 10.1223L63.5302 12.7556C62.5225 12.8408 61.5359 13.093 60.6109 13.5018C59.8025 13.8628 59.0988 14.4228 58.5654 15.1294V21.9473H55.6883V10.4821ZM67.1825 8.91754C66.9199 8.92132 66.6586 8.88038 66.4098 8.79649C66.1948 8.72367 65.9954 8.61118 65.8219 8.46484C65.6643 8.33114 65.5369 8.16554 65.448 7.97897C65.3608 7.79531 65.3161 7.59441 65.317 7.39112C65.3153 7.18455 65.3601 6.98025 65.448 6.79332C65.5361 6.60768 65.6637 6.44355 65.8219 6.31243C65.9966 6.16916 66.1957 6.05876 66.4098 5.98658C66.6586 5.90269 66.9199 5.86175 67.1825 5.86553C67.4481 5.86133 67.7125 5.90226 67.9644 5.98658C68.1784 6.05876 68.3776 6.16916 68.5522 6.31243C68.7105 6.44355 68.8381 6.60768 68.9262 6.79332C69.0141 6.98025 69.0589 7.18455 69.0572 7.39112C69.0581 7.59441 69.0134 7.79531 68.9262 7.97897C68.8373 8.16554 68.7098 8.33114 68.5522 8.46484C68.3788 8.61118 68.1794 8.72367 67.9644 8.79649C67.7125 8.88081 67.4481 8.92174 67.1825 8.91754ZM65.7473 10.4821H68.6236V21.9473H65.7473V10.4821ZM71.6159 16.2147C71.6097 15.4167 71.7795 14.6271 72.1133 13.9023C72.4496 13.1793 72.9364 12.5365 73.5411 12.0168C74.2023 11.4549 74.9639 11.023 75.7856 10.7441C76.7379 10.4213 77.7384 10.2637 78.7439 10.2781C79.7494 10.264 80.7499 10.4218 81.7022 10.7449C82.5239 11.0239 83.2854 11.4557 83.9467 12.0177C84.5525 12.5375 85.0401 13.181 85.3769 13.9047C85.7107 14.6296 85.8806 15.4192 85.8744 16.2172C85.8806 17.0152 85.7107 17.8048 85.3769 18.5296C85.0403 19.2524 84.5532 19.8949 83.9483 20.4142C83.287 20.9756 82.5254 21.4068 81.7039 21.6853C80.7516 22.0084 79.751 22.1663 78.7455 22.1521C77.7401 22.1665 76.7396 22.0089 75.7872 21.6861C74.9648 21.4069 74.2027 20.9745 73.5411 20.4117C72.9362 19.8924 72.4491 19.2499 72.1125 18.5271C71.7781 17.8024 71.6077 17.0128 71.6134 16.2147H71.6159ZM74.638 16.2147C74.6361 16.665 74.7305 17.1106 74.915 17.5214C75.1031 17.9377 75.3782 18.3089 75.7217 18.61C76.1011 18.9388 76.5399 19.1921 77.0143 19.3563C77.5719 19.549 78.159 19.6428 78.7489 19.6332C79.3388 19.6428 79.9258 19.549 80.4834 19.3563C80.9578 19.1921 81.3966 18.9388 81.776 18.61C82.118 18.3084 82.3916 17.9373 82.5786 17.5214C82.7631 17.1106 82.8575 16.665 82.8555 16.2147C82.8577 15.7617 82.7633 15.3134 82.5786 14.8997C82.3913 14.4817 82.1161 14.109 81.7719 13.8069C81.3924 13.4781 80.9537 13.2249 80.4792 13.0607C79.9216 12.8679 79.3346 12.7742 78.7447 12.7838C78.1548 12.7742 77.5678 12.8679 77.0102 13.0607C76.5357 13.2249 76.097 13.4781 75.7176 13.8069C75.3739 14.1092 75.0993 14.4819 74.9125 14.8997C74.7278 15.3134 74.6334 15.7617 74.6356 16.2147H74.638ZM88.7854 10.4821H91.6617V11.4538C92.3478 11.0527 93.0849 10.7459 93.8531 10.5418C94.5215 10.3705 95.2085 10.2825 95.8985 10.2798C96.724 10.2719 97.545 10.4017 98.3279 10.6637C99.0457 10.9036 99.7047 11.2926 100.261 11.8054C100.821 12.3336 101.257 12.9788 101.539 13.695C101.859 14.5285 102.015 15.4164 101.997 16.3092V21.9473H99.1305V16.7785C99.1395 16.2054 99.0491 15.6351 98.8635 15.0929C98.7019 14.6241 98.4398 14.1963 98.0957 13.8392C97.7533 13.4937 97.3384 13.2283 96.881 13.0624C96.3686 12.878 95.827 12.7876 95.2825 12.7954C94.9611 12.7964 94.6407 12.8289 94.3257 12.8924C93.9978 12.9574 93.6761 13.05 93.3639 13.1693C93.0467 13.2898 92.7414 13.4394 92.4518 13.6162C92.1658 13.7901 91.8987 13.9935 91.655 14.2231V21.9473H88.7821L88.7854 10.4821Z" fill="white"/>
<path d="M14.3879 28.7757C11.5422 28.7757 8.76046 27.9319 6.39439 26.3509C4.02832 24.77 2.1842 22.5229 1.09522 19.8938C0.00623402 17.2648 -0.278693 14.3719 0.276465 11.5809C0.831623 8.78996 2.20193 6.22629 4.21411 4.21411C6.22629 2.20193 8.78996 0.831623 11.5809 0.276465C14.3719 -0.278693 17.2648 0.00623402 19.8938 1.09522C22.5229 2.1842 24.77 4.02832 26.3509 6.39439C27.9319 8.76046 28.7757 11.5422 28.7757 14.3879C28.7757 18.2037 27.2598 21.8634 24.5616 24.5616C21.8634 27.2598 18.2037 28.7757 14.3879 28.7757ZM14.3879 25.8978C17.4406 25.8978 20.3683 24.6851 22.5269 22.5265C24.6855 20.3679 25.8982 17.4402 25.8982 14.3874C25.8982 11.3347 24.6855 8.407 22.5269 6.24838C20.3683 4.08977 17.4406 2.87708 14.3879 2.87708C11.3351 2.87708 8.40741 4.08977 6.2488 6.24838C4.09019 8.407 2.87749 11.3347 2.87749 14.3874C2.87749 17.4402 4.09019 20.3679 6.2488 22.5265C8.40741 24.6851 11.3351 25.8978 14.3879 25.8978ZM17.2658 11.51H12.9493C12.5677 11.51 12.2017 11.3583 11.9318 11.0885C11.662 10.8186 11.5104 10.4526 11.5104 10.071C11.5104 9.68937 11.662 9.32337 11.9318 9.05351C12.2017 8.78366 12.5677 8.63205 12.9493 8.63205H18.7043C19.0858 8.63205 19.4517 8.78361 19.7215 9.05339C19.9913 9.32317 20.1428 9.68906 20.1428 10.0706V15.8256C20.1428 16.2072 19.9912 16.5732 19.7214 16.8431C19.4515 17.1129 19.0855 17.2645 18.7039 17.2645C18.3222 17.2645 17.9562 17.1129 17.6864 16.8431C17.4165 16.5732 17.2649 16.2072 17.2649 15.8256L17.2658 11.51ZM12.9493 15.8264H8.63288C8.25125 15.8264 7.88524 15.6748 7.61539 15.4049C7.34553 15.1351 7.19393 14.7691 7.19393 14.3874C7.19393 14.0058 7.34553 13.6398 7.61539 13.3699C7.88524 13.1001 8.25125 12.9485 8.63288 12.9485H14.3879C14.7694 12.9485 15.1353 13.1 15.4051 13.3698C15.6748 13.6396 15.8264 14.0055 15.8264 14.387V20.142C15.8264 20.5236 15.6748 20.8896 15.4049 21.1595C15.1351 21.4293 14.7691 21.5809 14.3874 21.5809C14.0058 21.5809 13.6398 21.4293 13.3699 21.1595C13.1001 20.8896 12.9485 20.5236 12.9485 20.142L12.9493 15.8264Z" fill="white"/>
</svg>
