<svg width="89" height="26" viewBox="0 0 89 26" fill="none" xmlns="http://www.w3.org/2000/svg">
<path d="M1.05681 8.46508H9.86099L6.9486 21.0586H10.1067L9.0499 25.5873H0.245716L3.1581 12.9937H0L1.05681 8.46508ZM4.81341 2.94487C4.81194 2.55075 4.88919 2.1603 5.04064 1.79636C5.18372 1.44713 5.39474 1.12972 5.66148 0.862484C5.93019 0.595532 6.24761 0.382453 6.59659 0.234766C6.96558 0.0786226 7.36282 6.4705e-05 7.76354 0.00398874C8.15068 0.00161574 8.53403 0.080228 8.88891 0.234766C9.23373 0.384218 9.5473 0.597167 9.81323 0.862484C10.0805 1.13084 10.2939 1.44784 10.4418 1.79636C10.597 2.15928 10.6756 2.55025 10.6729 2.94487C10.6756 3.33949 10.597 3.73046 10.4418 4.09337C10.2939 4.44189 10.0805 4.7589 9.81323 5.02726C9.5473 5.29257 9.23373 5.50552 8.88891 5.65497C8.53403 5.80951 8.15068 5.88812 7.76354 5.88575C7.36281 5.8897 6.96557 5.81114 6.59659 5.65497C6.24761 5.50729 5.93019 5.29421 5.66148 5.02726C5.39482 4.76025 5.18381 4.4431 5.04064 4.09414C4.88909 3.72996 4.81184 3.33924 4.81341 2.94487ZM12.1941 18.3808C12.1735 16.9074 12.4638 15.4462 13.0461 14.0922C13.5826 12.8541 14.362 11.736 15.3384 10.8036C16.303 9.89179 17.4361 9.17616 18.6744 8.69662C19.9475 8.19894 21.3034 7.94653 22.6706 7.95275C23.7124 7.94496 24.7452 8.14721 25.707 8.54739C26.6236 8.92643 27.458 9.47919 28.1641 10.1751C28.8637 10.8704 29.4203 11.6957 29.8025 12.6045C30.2032 13.5536 30.4058 14.5745 30.3979 15.6046C30.4137 17.0326 30.1408 18.4492 29.5953 19.7694C29.0851 20.9992 28.3373 22.1167 27.3946 23.0579C26.4466 23.9935 25.3204 24.7295 24.0825 25.2226C22.7701 25.7478 21.3676 26.0117 19.9538 25.9996C18.8946 26.0105 17.8443 25.8053 16.8674 25.3965C15.9514 25.0124 15.1174 24.4571 14.4102 23.7603C13.7135 23.0683 13.1601 22.2459 12.7818 21.3402C12.3879 20.4037 12.188 19.3973 12.1941 18.3816V18.3808ZM17.586 17.7693C17.5807 18.2217 17.6534 18.6716 17.8009 19.0993C17.933 19.4822 18.138 19.8359 18.4048 20.1409C18.6605 20.4306 18.9758 20.6617 19.3291 20.8186C19.6967 20.9804 20.0945 21.0622 20.4961 21.0586C21.0737 21.0579 21.6442 20.9311 22.1676 20.6871C22.7115 20.4392 23.2044 20.0922 23.6211 19.664C24.0525 19.2183 24.3975 18.6967 24.6386 18.1254C24.8951 17.522 25.0246 16.8724 25.0191 16.2169C25.0297 15.7191 24.9482 15.2236 24.7788 14.7553C24.6375 14.372 24.4209 14.0208 24.1418 13.7222C23.8829 13.4504 23.5673 13.2387 23.2175 13.1022C22.8587 12.9633 22.4769 12.8931 22.0921 12.8952C21.4832 12.8897 20.8808 13.0212 20.3297 13.2799C19.7904 13.534 19.3065 13.8915 18.9055 14.3322C18.495 14.7855 18.1699 15.309 17.9457 15.8777C17.7059 16.4796 17.5848 17.1222 17.5891 17.77L17.586 17.7693ZM33.489 8.46123H42.193L41.9281 9.8659V9.84975C42.4111 9.48375 42.9268 9.1629 43.4686 8.89125C43.9933 8.6315 44.5433 8.42631 45.1101 8.27892C45.6772 8.1296 46.2613 8.05461 46.8478 8.05583C47.7108 8.03683 48.5681 8.20015 49.3635 8.53508C50.0498 8.83005 50.6441 9.30376 51.0843 9.90667C51.5356 10.5572 51.8171 11.31 51.9031 12.0968C52.0112 13.079 51.941 14.0726 51.6959 15.0299L50.2893 21.0586H53.4136L52.3745 25.5873H43.5872L45.7216 16.3815C45.8176 16.0067 45.8483 15.6182 45.8125 15.233C45.7844 14.921 45.6943 14.6176 45.5476 14.3407C45.418 14.1013 45.223 13.9036 44.9853 13.7707C44.7341 13.635 44.452 13.5666 44.1665 13.5722C43.4308 13.6227 42.7169 13.8434 42.0814 14.2168C41.6102 14.4633 41.1617 14.7509 40.7411 15.0761L38.3078 25.5873H32.4992L35.4116 12.9937H32.433L33.489 8.46123ZM57.0046 8.46123H65.8149L62.8994 21.0586H66.0575L65.0015 25.5873H56.1973L59.1136 12.9937H55.9554L57.0046 8.46123ZM60.7612 2.94102C60.7585 2.54717 60.8344 2.15673 60.9845 1.79252C61.1276 1.44329 61.3386 1.12587 61.6054 0.858636C61.8741 0.591685 62.1915 0.378606 62.5405 0.230919C62.9095 0.0747544 63.3067 -0.00380444 63.7074 0.000141617C64.0946 -0.00223138 64.4779 0.0763809 64.8328 0.230919C65.1776 0.380371 65.4912 0.593319 65.7571 0.858636C66.0244 1.12699 66.2378 1.444 66.3857 1.79252C66.5409 2.15544 66.6195 2.5464 66.6167 2.94102C66.6195 3.33565 66.5409 3.72661 66.3857 4.08953C66.2378 4.43805 66.0244 4.75505 65.7571 5.02341C65.4912 5.28873 65.1776 5.50167 64.8328 5.65112C64.4779 5.80566 64.0946 5.88428 63.7074 5.8819C63.3067 5.88585 62.9095 5.80729 62.5405 5.65112C62.1915 5.50344 61.8741 5.29036 61.6054 5.02341C61.3386 4.75618 61.1276 4.43876 60.9845 4.08953C60.8362 3.72625 60.7616 3.33717 60.765 2.94487L60.7612 2.94102ZM79.4648 24.2795C79.0021 24.7474 78.451 25.119 77.8434 25.3726C77.0426 25.7085 76.1799 25.8719 75.3115 25.8519C74.4128 25.851 73.5215 25.6886 72.6803 25.3726C71.8265 25.0575 71.0464 24.5711 70.388 23.9434C69.6954 23.2737 69.1439 22.4726 68.7658 21.5871C68.3346 20.5625 68.1231 19.459 68.145 18.3478C68.1373 17.3442 68.2767 16.3448 68.5586 15.3815C68.8213 14.4904 69.2054 13.6396 69.7001 12.8529C70.1786 12.0956 70.7606 11.4086 71.4294 10.8121C72.0913 10.221 72.8253 9.71571 73.6139 9.30819C74.4067 8.89897 75.2456 8.58548 76.1126 8.37431C76.9873 8.15972 77.8848 8.0515 78.7855 8.05199C79.2207 8.0462 79.6556 8.07941 80.0849 8.15122C80.4444 8.21738 80.8552 8.31661 81.3173 8.44892C81.9017 8.64381 82.4496 8.93417 82.9388 9.30819L83.1375 8.462H88.7604L85.8334 21.0556H89L87.9378 25.5873H79.1667L79.4648 24.2795ZM80.0772 19.437L80.8051 18.5278L81.6324 14.9576C81.4919 14.6926 81.3196 14.4456 81.1194 14.2222C80.894 13.9728 80.6282 13.7632 80.3329 13.6022C80.0103 13.4228 79.6653 13.2867 79.3069 13.1976C78.9419 13.1044 78.5667 13.0571 78.19 13.0568C77.6032 13.0549 77.0225 13.176 76.4854 13.4122C75.9578 13.6403 75.4778 13.9654 75.0704 14.3707C74.6611 14.7825 74.3327 15.2673 74.1022 15.8C73.8579 16.3577 73.7338 16.9605 73.7379 17.5693C73.7283 18.0426 73.8126 18.5132 73.9859 18.9539C74.1372 19.3298 74.3688 19.6682 74.6645 19.9455C74.9511 20.2097 75.2891 20.4121 75.6574 20.5401C76.0457 20.6746 76.4542 20.7417 76.8652 20.7386C77.2418 20.7369 77.6168 20.6897 77.9821 20.5978C78.3661 20.5028 78.7361 20.3583 79.0828 20.1678C79.4453 19.9704 79.7797 19.7254 80.0772 19.4393V19.437Z" fill="white"/>
</svg>
