<svg width="138" height="21" viewBox="0 0 138 21" fill="none" xmlns="http://www.w3.org/2000/svg">
<path d="M26.3263 10.0217C26.4018 9.11593 26.2508 8.13464 25.8734 7.30431L24.2882 3.37915C23.9863 2.47334 23.3824 1.7185 22.703 1.11463C22.0992 0.586239 21.2689 0.208819 20.4385 0.0578514C19.5327 -0.0931165 18.7024 0.0578515 17.8721 0.435271L13.1166 2.39785L8.28561 0.586239C7.45528 0.284303 6.54947 0.133335 5.71915 0.284303C4.88883 0.435271 4.13399 0.812691 3.45463 1.34108C2.77527 1.94495 2.24689 2.77527 1.94495 3.6056L0.435271 7.53077C0.0578514 8.36109 -0.0931165 9.34238 0.0578514 10.2482V10.3237C-0.0176325 11.2295 0.133335 12.2108 0.510755 13.0411L2.09592 16.9663C2.39785 17.8721 3.00173 18.6269 3.68108 19.2308C4.28495 19.7592 5.11528 20.1366 5.9456 20.2876C6.17205 20.2876 6.39851 20.363 6.62496 20.363C7.30431 20.363 7.90819 20.2121 8.51206 19.9856L13.2675 18.023L18.0985 19.8347C18.9288 20.1366 19.8347 20.2876 20.665 20.1366C21.4953 19.9856 22.2501 19.6082 22.9295 19.0798C23.6089 18.4759 24.1372 17.6456 24.4392 16.8153L25.9489 12.8901C26.2508 11.9843 26.4018 11.003 26.3263 10.0217ZM23.4579 13.7959L22.6276 16.0605C22.3256 16.8908 21.7218 17.6456 20.9669 18.0985C20.2121 18.4759 19.3818 18.4759 18.6269 18.174L15.6076 17.0417L23.3069 13.9469C23.3824 13.8714 23.4579 13.8714 23.4579 13.7959ZM3.07721 14.0224L10.8521 16.9663L7.8327 18.174C7.07786 18.4759 6.24754 18.4759 5.4927 18.0985C4.73786 17.6456 4.13399 16.9663 3.83205 16.1359L2.92624 13.9469C3.00173 14.0224 3.00173 14.0224 3.07721 14.0224ZM7.68173 2.1714L10.7011 3.30366L3.07721 6.39851C3.00173 6.39851 2.92624 6.47399 2.92624 6.47399L3.75657 4.20947C3.98302 3.37915 4.58689 2.69979 5.34173 2.24689C6.09657 1.86947 6.92689 1.86947 7.68173 2.1714ZM18.4759 2.09592C19.2308 1.79398 20.0611 1.79398 20.8159 2.1714C21.6463 2.62431 22.2501 3.30366 22.5521 4.13399L23.4579 6.32302C23.3824 6.32302 23.3069 6.24754 23.3069 6.24754L15.5321 3.30366L18.4759 2.09592ZM24.3637 10.0972C24.3637 10.3237 24.2882 10.4746 24.2127 10.6256C23.9108 11.3804 23.3824 11.9843 22.5521 12.2863L13.1921 16.0605L3.75657 12.4372C3.00173 12.2108 2.39785 11.6069 2.09592 10.8521C2.02043 10.7011 2.02043 10.5501 1.94495 10.3237C1.94495 10.0972 2.02043 9.94625 2.09592 9.7198C2.39785 8.96496 2.92624 8.36109 3.75657 8.05915L13.1166 4.28495L22.5521 7.90819C23.3069 8.21012 23.9108 8.73851 24.2127 9.56883C24.2882 9.64432 24.3637 9.87077 24.3637 10.0972Z" fill="white"/>
<path d="M137.134 10.5507C136.455 9.94686 135.549 9.56944 134.644 9.41847L131.096 8.8146C130.643 8.73912 130.19 8.58815 129.888 8.28621C129.586 8.05976 129.435 7.68234 129.511 7.30492V6.24815C129.511 5.79524 129.737 5.41782 130.039 5.11589C130.492 4.81395 131.096 4.66298 131.7 4.66298H133.964C134.493 4.66298 135.021 4.81395 135.398 5.19137C135.776 5.56879 136.002 6.17266 135.927 6.70105V7.00299H137.889V6.77653C137.965 5.71976 137.512 4.66298 136.757 3.90814C136.002 3.1533 134.945 2.77588 133.889 2.85137H131.7C130.643 2.77588 129.586 3.1533 128.68 3.75718C127.925 4.36105 127.473 5.26686 127.473 6.24815V7.30492C127.473 8.13525 127.774 8.96557 128.378 9.49396C129.058 10.0978 129.888 10.4752 130.794 10.6262L134.342 11.2301C134.794 11.3056 135.247 11.4565 135.625 11.7585C135.927 11.9849 136.078 12.3623 136.078 12.6643V13.9475C136.078 14.4004 135.851 14.8533 135.474 15.0798C134.945 15.3817 134.342 15.6082 133.738 15.5327H131.549C130.869 15.5327 130.265 15.3062 129.888 14.8533C129.435 14.4004 129.209 13.7211 129.209 13.0417V12.7398H127.246V12.9662C127.246 13.7211 127.397 14.5514 127.774 15.2307C128.152 15.9101 128.605 16.363 129.284 16.7404C129.964 17.1178 130.718 17.2688 131.473 17.2688H133.738C133.813 17.2688 133.889 17.2688 133.964 17.2688C134.945 17.2688 136.002 16.9669 136.757 16.363C137.512 15.7591 137.965 14.8533 137.965 13.872V12.5888C138.116 11.9094 137.738 11.1546 137.134 10.5507Z" fill="white"/>
<path d="M111.32 11.6844C111.093 11.3824 110.867 11.0805 110.565 10.9295C111.093 10.7031 111.622 10.3257 111.999 9.87275C112.452 9.34437 112.754 8.58953 112.754 7.83469V6.40049C112.754 5.49468 112.452 4.58887 111.773 3.90952C111.018 3.30565 110.112 2.92823 109.206 3.00371H102.262V17.2702H104.224V11.4579H107.923C108.376 11.4579 108.904 11.6089 109.206 11.9863C109.659 12.3637 109.961 12.8921 110.112 13.4205L111.244 17.2702H113.282L112.075 13.2695C111.924 12.7411 111.697 12.1373 111.32 11.6844ZM110.791 6.32501V7.83469C110.791 8.36307 110.64 8.81598 110.263 9.11791C109.81 9.49533 109.282 9.6463 108.678 9.6463H104.224V4.89081H109.131C109.584 4.89081 110.037 5.04178 110.339 5.26823C110.64 5.49468 110.791 5.8721 110.791 6.32501Z" fill="white"/>
<path d="M46.481 3.98354C45.7262 3.30418 44.8203 3.00224 43.8391 3.07773H36.8945V17.3442H38.8571V12.1358H43.5371C44.5939 12.2113 45.5752 11.8339 46.33 11.1545C47.0849 10.4752 47.4623 9.49387 47.3868 8.51258V6.47451C47.5378 5.49322 47.1604 4.58741 46.481 3.98354ZM45.4997 8.43709C45.4997 8.96548 45.3487 9.41838 44.9713 9.7958C44.5939 10.1732 44.0655 10.3242 43.5371 10.3242H38.8571V4.81386H43.7636C44.2165 4.81386 44.6694 4.96483 45.0468 5.26676C45.3487 5.5687 45.4997 5.94612 45.4997 6.39902V8.43709Z" fill="white"/>
<path d="M94.8646 11.7561H94.7891L91.8453 3.98129C91.5433 3.22645 91.015 3 90.6375 3H89.8072L84.2969 17.2665H86.3349L87.7691 13.4923H93.4304L94.8646 17.2665H96.9027L94.8646 11.9826V11.7561ZM92.8266 11.7561H88.4485L90.6375 5.94387L92.8266 11.7561Z" fill="white"/>
<path d="M121.06 3H119.098V17.2665H121.06V3Z" fill="white"/>
<path d="M62.1829 3.53287C61.428 3.07997 60.5222 2.85352 59.6164 2.85352H57.5783C56.6725 2.85352 55.7667 3.07997 55.0119 3.53287C54.257 3.98578 53.6532 4.58965 53.2757 5.34449C52.8228 6.17481 52.6719 7.1561 52.6719 8.06191V12.289C52.6719 13.1948 52.8983 14.1761 53.2757 15.0064C53.6532 15.7613 54.257 16.4406 55.0119 16.8181C55.7667 17.271 56.597 17.4974 57.4274 17.4974H57.5029H59.6164C60.5222 17.4974 61.3525 17.271 62.1829 16.8181C62.9377 16.3651 63.5416 15.7613 63.919 15.0064C64.3719 14.1761 64.5229 13.2703 64.5229 12.289V8.06191C64.5229 7.1561 64.2964 6.17481 63.919 5.34449C63.5416 4.58965 62.9377 3.98578 62.1829 3.53287ZM62.5603 12.289C62.6358 13.1948 62.3338 14.0251 61.73 14.7045C61.2016 15.3084 60.4467 15.6103 59.6164 15.6103H57.5783C56.748 15.6858 55.9932 15.3084 55.4648 14.7045C54.8609 14.0251 54.6345 13.1193 54.6345 12.2135V7.98643C54.559 7.08062 54.8609 6.25029 55.4648 5.57094C55.9932 5.04255 56.748 4.66513 57.5029 4.66513H57.5783H59.6164C60.4467 4.66513 61.2016 4.96707 61.73 5.57094C62.3338 6.25029 62.5603 7.1561 62.5603 8.06191V12.289Z" fill="white"/>
<path d="M72.6735 3H70.7109V15.6813C70.7109 16.1342 70.8619 16.5116 71.1638 16.8136C71.4658 17.04 71.8432 17.191 72.2206 17.191H72.2961H80.071V15.3794H72.598V3H72.6735Z" fill="white"/>
</svg>
