<svg fill="none" height="26" viewBox="0 0 193 26" width="193" xmlns="http://www.w3.org/2000/svg"><g fill="#fff"><path d="m19.3891 1.19953h5.542l-9.35 23.79997h-4.998zm-18.768006 0h5.507996l8.87401 23.79997h-4.998z"/><path d="m32.5957 25.4075c-1.7453 0-3.3093-.374-4.692-1.122-1.36-.7706-2.4253-1.8246-3.196-3.162-.7707-1.36-1.156-2.9013-1.156-4.624 0-1.7226.374-3.2526 1.122-4.59.7707-1.36 1.836-2.41397 3.196-3.16197 1.36-.77067 2.9013-1.156 4.624-1.156 1.7453 0 3.298.38533 4.658 1.156 1.3827.748 2.448 1.80197 3.196 3.16197.7707 1.3374 1.156 2.8674 1.156 4.59 0 1.7227-.3853 3.264-1.156 4.624-.748 1.3374-1.802 2.3914-3.162 3.162-1.36.748-2.89 1.122-4.59 1.122zm-.034-4.59c.748 0 1.4053-.1813 1.972-.544.5893-.3626 1.0427-.8726 1.36-1.53.34-.6573.51-1.4053.51-2.244 0-.8386-.17-1.5866-.51-2.244-.3173-.6573-.782-1.1673-1.394-1.53-.5893-.3626-1.258-.544-2.006-.544-.7253 0-1.3827.1814-1.972.544-.5893.3627-1.054.8727-1.394 1.53-.3173.6574-.476 1.4054-.476 2.244 0 .8387.1587 1.5867.476 2.244.34.6574.8047 1.1674 1.394 1.53.612.3627 1.292.544 2.04.544z"/><path d="m46.6728 16.1595c0-1.7453.34-3.2413 1.02-4.488.7026-1.2466 1.6093-2.17597 2.72-2.78797 1.1333-.63467 2.346-.952 3.638-.952v4.82797c-1.7 0-3.128.2947-4.284.884-1.156.5667-1.734 1.4167-1.734 2.55zm-3.638-8.15997h4.998v16.99997h-4.998z"/><path d="m62.334 25.4075c-1.9493 0-3.4226-.4646-4.42-1.394-.9746-.952-1.462-2.3233-1.462-4.114v-17.20397h4.964v16.01397c0 .7254.136 1.258.408 1.598s.7027.51 1.292.51c.204 0 .442-.0566.714-.17.272-.1133.5327-.2493.782-.408l1.734 3.672c-.5667.4534-1.2127.816-1.938 1.088-.7027.272-1.394.408-2.074.408zm-8.568-17.40797h11.696v4.18197h-11.696z"/><path d="m75.4389 25.4075c-1.7 0-3.2187-.374-4.556-1.122-1.3373-.7706-2.3913-1.8246-3.162-3.162-.748-1.36-1.122-2.9013-1.122-4.624 0-1.7226.374-3.2526 1.122-4.59.7707-1.36 1.836-2.41397 3.196-3.16197 1.3827-.77067 2.9353-1.156 4.658-1.156 1.6093 0 3.0487.39667 4.318 1.19s2.278 1.96067 3.026 3.50197c.748 1.5187 1.122 3.3547 1.122 5.508h-12.818l.51-.544c0 1.2014.3853 2.1647 1.156 2.89.7707.7027 1.7227 1.054 2.856 1.054.8387 0 1.5527-.1813 2.142-.544.5893-.3626 1.02-.8613 1.292-1.496l4.42 1.598c-.7027 1.5187-1.7567 2.6747-3.162 3.468-1.4053.7934-3.0713 1.19-4.998 1.19zm-4.012-11.084h7.854l-.442.578c0-1.1333-.3513-1.972-1.054-2.516-.68-.5666-1.462-.85-2.346-.85-.544 0-1.088.1134-1.632.34-.544.2267-.9973.6007-1.36 1.122-.3627.4987-.544 1.1334-.544 1.904z"/><path d="m90.0294 15.3095 4.862-7.30997h5.8816l-6.8676 9.55397-4.896 7.446h-5.95zm.374 2.244-6.902-9.55397h5.882l4.828 7.30997 6.9696 9.69h-5.9156z"/><path d="m111.168 25.4075c-1.7 0-3.162-.238-4.386-.714s-2.21-1.0993-2.958-1.87c-.748-.7933-1.292-1.666-1.632-2.618l2.04-.782c.408 1.1334 1.19 2.0854 2.346 2.856 1.156.7707 2.516 1.156 4.08 1.156 2.063 0 3.672-.3966 4.828-1.19 1.179-.7933 1.768-1.8586 1.768-3.196 0-1.2013-.51-2.1873-1.53-2.958-.997-.7933-2.402-1.4166-4.216-1.87l-2.414-.612c-1.768-.4533-3.196-1.1673-4.284-2.142-1.065-.9973-1.598-2.30064-1.598-3.90997 0-2.15333.68-3.81933 2.04-4.998 1.383-1.17867 3.366-1.767998 5.95-1.767998 1.474 0 2.777.260668 3.91.781998 1.156.49867 2.086 1.14467 2.788 1.938.726.77067 1.213 1.57533 1.462 2.414l-2.006.782c-.498-1.24667-1.314-2.21-2.448-2.89-1.133-.70267-2.482-1.054-4.046-1.054-1.677 0-3.014.408-4.012 1.224-.974.816-1.462 1.91533-1.462 3.298 0 1.17867.352 2.09667 1.054 2.75397.726.6347 1.768 1.122 3.128 1.462l2.414.578c2.335.5667 4.16 1.462 5.474 2.686 1.315 1.224 1.972 2.55 1.972 3.978 0 1.224-.317 2.346-.952 3.366-.612.9974-1.541 1.802-2.788 2.414-1.246.5894-2.754.884-4.522.884z"/><path d="m128.821 25.4075c-1.564 0-2.788-.4193-3.672-1.258-.884-.8386-1.326-2.006-1.326-3.502v-17.95197h2.04v17.95197c0 .9067.26 1.6207.782 2.142.521.4987 1.246.748 2.176.748.294 0 .566-.0453.816-.136.272-.0906.646-.2946 1.122-.612l.85 1.768c-.567.34-1.066.5667-1.496.68-.408.1134-.839.17-1.292.17zm-8.024-17.40797h10.472v1.87h-10.472z"/><path d="m145.69 21.8715v-13.87197h2.04v16.99997h-1.904zm-10.166-5.168c0 2.6067.431 4.3974 1.292 5.372.884.952 2.131 1.428 3.74 1.428 1.61 0 2.868-.5893 3.774-1.768.907-1.2013 1.36-2.8673 1.36-4.998h1.258c0 1.8134-.26 3.366-.782 4.658-.521 1.292-1.292 2.2894-2.312 2.992-.997.68-2.221 1.02-3.672 1.02-2.085 0-3.728-.6346-4.93-1.904-1.201-1.292-1.79-3.298-1.768-6.018v-.782zm-2.04-8.70397h2.04v8.70397h-2.04z"/><path d="m164.278 21.8375v-21.317969h2.04v24.479969h-1.938zm-5.984 3.57c-1.473 0-2.799-.374-3.978-1.122-1.156-.7706-2.062-1.8246-2.72-3.162-.657-1.36-.986-2.9013-.986-4.624 0-1.7226.329-3.2526.986-4.59.658-1.36 1.564-2.41397 2.72-3.16197 1.179-.77067 2.505-1.156 3.978-1.156 1.428 0 2.698.38533 3.808 1.156 1.111.748 1.972 1.80197 2.584 3.16197.635 1.3374.952 2.8674.952 4.59 0 1.7227-.317 3.264-.952 4.624-.612 1.3374-1.473 2.3914-2.584 3.162-1.11.748-2.38 1.122-3.808 1.122zm.408-1.836c1.066 0 2.018-.2946 2.856-.884.862-.612 1.53-1.4506 2.006-2.516.476-1.088.714-2.312.714-3.672s-.238-2.5726-.714-3.638c-.476-1.088-1.144-1.9266-2.006-2.516-.838-.61197-1.802-.91797-2.89-.91797-1.156 0-2.198.306-3.128.91797-.906.5894-1.62 1.428-2.142 2.516-.498 1.0654-.748 2.278-.748 3.638s.261 2.584.782 3.672c.522 1.0654 1.236 1.904 2.142 2.516.93.5894 1.972.884 3.128.884z"/><path d="m170.366 7.99953h2.04v16.99997h-2.04zm1.054-4.42c-.363 0-.68-.136-.952-.408s-.408-.58933-.408-.952c0-.38533.136-.70267.408-.952.272-.271999.589-.407999.952-.407999.385 0 .702.136.952.407999.272.24933.408.56667.408.952 0 .36267-.136.68-.408.952-.25.272-.567.408-.952.408z"/><path d="m183.854 25.4075c-1.609 0-3.048-.374-4.318-1.122-1.269-.7706-2.266-1.8246-2.992-3.162-.702-1.36-1.054-2.9013-1.054-4.624 0-1.7226.352-3.2526 1.054-4.59.703-1.36 1.678-2.41397 2.924-3.16197 1.27-.77067 2.709-1.156 4.318-1.156 1.61 0 3.049.38533 4.318 1.156 1.27.748 2.256 1.80197 2.958 3.16197.703 1.3374 1.054 2.8674 1.054 4.59 0 1.7227-.351 3.264-1.054 4.624-.702 1.3374-1.688 2.3914-2.958 3.162-1.246.748-2.663 1.122-4.25 1.122zm0-1.87c1.202 0 2.267-.2946 3.196-.884.952-.612 1.689-1.4506 2.21-2.516.544-1.0653.816-2.278.816-3.638s-.272-2.5726-.816-3.638c-.521-1.0653-1.269-1.8926-2.244-2.482-.952-.61197-2.028-.91797-3.23-.91797-1.201 0-2.278.306-3.23.91797-.952.5894-1.7 1.4167-2.244 2.482-.521 1.0654-.782 2.278-.782 3.638s.261 2.5727.782 3.638c.544 1.0654 1.292 1.904 2.244 2.516.975.5894 2.074.884 3.298.884z"/></g></svg>